<?xml version="1.0" encoding="UTF-8"?>
<svg width="41px" height="11px" viewBox="0 0 41 11" version="1.1" xmlns="http://www.w3.org/2000/svg" xmlns:xlink="http://www.w3.org/1999/xlink">
    <!-- Generator: Sketch 49.2 (51160) - http://www.bohemiancoding.com/sketch -->
    <title>Artboard</title>
    <desc>Created with Sketch.</desc>
    <defs></defs>
    <g id="Artboard" stroke="none" stroke-width="1" fill="none" fill-rule="evenodd">
        <path d="M34.1742095,9.33522983 C34.0118709,9.17289126 34.0118709,9.01055512 34.1742095,8.84821655 L36.8933669,5.84496804 L3.33552872,5.92613692 C3.1190773,5.92613692 3.01085321,5.81791283 3.01085321,5.6014614 C3.01085321,5.38500998 3.1190773,5.27678589 3.33552872,5.27678589 L36.8933669,5.19561701 L34.1742095,2.1923685 C34.0118709,2.03002993 34.0118709,1.86769379 34.1742095,1.70535522 C34.3365481,1.54301665 34.4988842,1.54301665 34.6612228,1.70535522 C36.7986806,4.05926448 37.8809215,5.24972946 37.9079779,5.27678589 C37.9620908,5.33089874 37.9891468,5.41206681 37.9891468,5.52029252 C37.9891468,5.62851824 37.9620908,5.7096863 37.9079779,5.76379916 L34.6612228,9.33522983 C34.6071099,9.38934268 34.5259418,9.4163987 34.4177161,9.4163987 C34.3094904,9.4163987 34.2283223,9.38934268 34.1742095,9.33522983 Z" id="ion-ios-arrow-thin-right---Ionicons" fill="#C2903D"></path>
    </g>
</svg>