<?xml version="1.0" encoding="UTF-8"?>
<svg width="24px" height="14px" viewBox="0 0 24 14" version="1.1" xmlns="http://www.w3.org/2000/svg" xmlns:xlink="http://www.w3.org/1999/xlink">
    <!-- Generator: Sketch 49.2 (51160) - http://www.bohemiancoding.com/sketch -->
    <title>Group 7</title>
    <desc>Created with Sketch.</desc>
    <defs></defs>
    <g id="Group-7" stroke="none" stroke-width="1" fill="none" fill-rule="evenodd">
        <g transform="translate(0.897614, 0.570710)" fill="#C2903D">
            <path d="M11.2081373,11.0752249 C11.2078752,11.0749628 11.2078752,11.0749628 11.207613,11.0747006 C11.2107589,11.0752249 11.2141669,11.0754871 11.2160019,11.0760114 C11.2133804,11.0757492 11.2107589,11.0754871 11.2081373,11.0752249 Z M11.1897867,11.0733899 C11.1890002,11.0731277 11.1882137,11.0731277 11.1874273,11.0728656 C11.1939811,11.0733899 11.1994863,11.073652 11.2039429,11.0741763 C11.2039429,11.0747006 11.2039429,11.0744385 11.2039429,11.0747006 C11.1992241,11.0744385 11.1947676,11.073652 11.1897867,11.0733899 Z M11.1625228,11.0728656 C11.1625228,11.0728656 11.1627849,11.0728656 11.1630471,11.0726034 C11.1635714,11.0726034 11.1635714,11.0723413 11.1640957,11.0720791 C11.1669794,11.0720791 11.1696009,11.0720791 11.173271,11.071817 C11.1696009,11.0720791 11.1659308,11.0726034 11.1625228,11.0728656 Z M11.1737953,9.58619776 C10.3320231,9.57387659 9.64623172,10.2853589 9.61372479,11.1077319 C9.58174216,11.923551 10.1917714,12.5419691 10.9436253,12.682483 C11.017028,12.7042416 11.0941009,12.7144656 11.1737953,12.7102712 C11.2513925,12.7144656 11.3268925,12.7042416 11.3989845,12.6835316 C12.1424495,12.5479987 12.7359631,11.9502906 12.7359631,11.1481034 C12.7359631,10.2916506 12.0202863,9.59878109 11.1737953,9.58619776 Z" id="Fill-33"></path>
            <path d="M9.62290013,1.67495441 C9.60428729,1.65162282 9.59353903,1.62488325 9.59301473,1.59421139 C9.59275257,1.53994579 9.61005465,1.61413499 9.62290013,1.67495441 Z M10.0738027,5.98579296 C10.2075006,6.51691427 10.3120995,7.05144357 10.3545682,7.59776974 C10.3341203,7.85677658 10.4759449,8.09271399 10.680424,8.24450038 C10.8130733,8.35172083 10.9800645,8.41699684 11.1737953,8.41699684 C11.3822067,8.41699684 11.5594219,8.34359409 11.6957413,8.22326602 C11.8844912,8.07147962 12.0124217,7.84550402 11.9930224,7.59776974 C12.0339183,7.07136717 12.1322255,6.55597502 12.2591074,6.04346655 C12.3760275,5.57316465 12.5637288,5.19828633 12.8049093,4.77884205 C13.3703726,3.79472092 13.8071189,2.57204086 13.587435,1.4240743 C13.4678934,0.799626639 12.9978536,0.211618194 12.3136352,0.212404652 C11.7342778,0.213453263 11.3405244,0.64967531 11.1735332,1.15930011 C11.0094256,0.663569402 10.6382174,0.233114713 10.0738027,0.212928958 C9.37280648,0.188024454 8.88231883,0.785732547 8.76015568,1.4240743 C8.54440404,2.55054434 8.96175109,3.76667059 9.5172526,4.73480041 C9.75476292,5.14873947 9.95688263,5.52204488 10.0738027,5.98579296 Z" id="Fill-34"></path>
            <path d="M4.27944221,4.59166505 C4.28153943,4.60555914 4.28206373,4.61919108 4.28258804,4.63256086 C4.24824604,4.58406262 4.24667312,4.56990637 4.27944221,4.59166505 Z M5.63870381,7.45279931 C6.13128869,7.61979057 6.56515136,7.78363599 6.99717896,8.07960635 C7.43680899,8.38029547 7.84707793,8.70877277 8.2316559,9.07762158 C8.38737458,9.2270486 8.55987104,9.29651906 8.72922167,9.30752947 C8.88992126,9.33033675 9.05900973,9.30254857 9.22442807,9.20581423 C9.42576132,9.08810768 9.58226647,8.84797584 9.62604596,8.59840649 C9.62840534,8.58634747 9.62997825,8.5745506 9.63181332,8.56249158 C9.63312408,8.55174332 9.634697,8.54125721 9.63548346,8.53050895 C9.63705637,8.51346903 9.63784283,8.49616695 9.63810499,8.47886487 C9.63862929,8.46942738 9.63862929,8.46025203 9.63862929,8.45107669 C9.63836714,8.4371826 9.63731853,8.42328851 9.63626992,8.40939442 C9.63522131,8.39523817 9.6341727,8.38134408 9.63233763,8.36718783 C9.63128902,8.35958541 9.62945395,8.35172083 9.62814318,8.34385625 C9.6247352,8.32524341 9.62132721,8.30663057 9.61660847,8.28854203 C9.61451124,8.28067745 9.61162757,8.27307503 9.60953034,8.2654726 C9.60454944,8.25026774 9.600355,8.23506289 9.59432549,8.22012019 C9.55841057,8.12469661 9.49863976,8.03110811 9.41291584,7.94302481 C9.11668332,7.53852324 8.85321988,7.11252514 8.61518526,6.67053574 C8.36745098,6.20993349 8.24450138,5.75431215 8.13728094,5.24416305 C7.92467512,4.2340888 7.47586974,3.12203716 6.67944992,2.42602182 C6.21019664,2.01575289 5.53489136,1.74835716 4.94504784,2.08574765 C4.33711579,2.43309994 4.28756894,3.11600765 4.53032231,3.69693797 C4.04166973,3.41066726 3.40647381,3.35640165 2.98047571,3.80337196 C2.50414431,4.30355926 2.60848107,5.0533159 2.95583336,5.59151534 C3.54987132,6.51219552 4.62836741,7.10990362 5.63870381,7.45279931 Z" id="Fill-35"></path>
            <path d="M18.0678863,4.59166505 C18.1006554,4.56990637 18.0993446,4.58406262 18.0650026,4.63256086 C18.0655269,4.61919108 18.0660513,4.60555914 18.0678863,4.59166505 Z M12.7532652,8.21985803 C12.7472357,8.23480074 12.7427791,8.2505299 12.7377982,8.2659969 C12.7359631,8.27333718 12.7330794,8.28067745 12.7312444,8.28801773 C12.7260013,8.30663057 12.7225933,8.32550556 12.7191853,8.34438055 C12.7178746,8.35172083 12.7163017,8.3590611 12.7152531,8.36640138 C12.713418,8.38081977 12.7123694,8.39523817 12.7113208,8.40991872 C12.71001,8.42302635 12.7092235,8.43639614 12.7086992,8.44950377 C12.7086992,8.45972773 12.7089614,8.46968953 12.7092235,8.48017564 C12.7097478,8.49616695 12.7102722,8.51215826 12.7118451,8.52814958 C12.7128937,8.5407329 12.7144666,8.55331623 12.7160395,8.56589956 C12.7173503,8.57559921 12.7189232,8.58556101 12.7204961,8.59526066 C12.7634891,8.84561646 12.9197321,9.08679692 13.1229005,9.20581423 C13.3001157,9.30936454 13.4786416,9.33531765 13.6461572,9.3056944 C13.8065946,9.28891663 13.968605,9.21892187 14.1156726,9.07762158 C14.4999884,8.70903492 14.9107817,8.38003332 15.3501496,8.07960635 C15.7829636,7.78363599 16.2155155,7.62005272 16.7086247,7.45279931 C17.718699,7.10990362 18.7977194,6.51193337 19.3914952,5.59151534 C19.7197103,5.08320131 19.8389898,4.38666166 19.4310802,3.8862122 C19.010063,3.3705579 18.3457682,3.38733567 17.8180548,3.69641367 C18.0563516,3.13278542 18.0138829,2.46036382 17.4392442,2.10436049 C16.8459927,1.7370846 16.1463072,2.00815046 15.6681408,2.42602182 C14.8717209,3.12177501 14.4223913,4.2340888 14.2103097,5.24416305 C14.1028272,5.75405 13.9801397,6.21019565 13.7321433,6.67053574 C13.4941086,7.11252514 13.2306452,7.53826108 12.9344127,7.94302481 C12.8489509,8.03110811 12.7894423,8.12443446 12.7532652,8.21985803 Z" id="Fill-36"></path>
            <path d="M0.178850104,11.0859732 C0.141362272,11.7662594 0.664094701,12.2570092 1.27595904,12.4512643 C2.36992214,12.7986166 3.63297372,12.4756445 4.65012609,12.0391603 C5.03706343,11.8729555 5.42426293,11.7154018 5.86677664,11.6514365 C6.45426078,11.566499 7.05406609,11.5408081 7.64653113,11.5620425 C7.84734008,11.5693827 8.03425493,11.4896883 8.17896321,11.360447 C8.29850483,11.2629263 8.39025826,11.1287041 8.43639713,10.9606642 C8.44557248,10.9271087 8.45160199,10.8927667 8.45579643,10.8579004 C8.46182594,10.8198882 8.46575823,10.7816139 8.46575823,10.7428154 C8.46575823,10.5933883 8.42512457,10.4562825 8.35565411,10.3380516 C8.25315242,10.1469423 8.08275318,9.99541808 7.86438,9.95294935 C7.29393579,9.84205877 6.73817212,9.67873766 6.19341887,9.47766656 C5.74802148,9.31355898 5.37655114,9.06136811 4.99616761,8.78007829 C4.14941448,8.15353341 3.05099478,7.5940996 1.96725564,7.6279173 C1.34018644,7.6473166 0.637355128,7.93306301 0.467742349,8.60286309 C0.301275402,9.2608663 0.724914121,9.75318901 1.27255105,10.0121959 C0.721506136,10.1299024 0.213978562,10.4518259 0.178850104,11.0859732 Z" id="Fill-37"></path>
            <path d="M16.2100103,9.45721865 C15.6471685,9.66720294 15.0730542,9.83812648 14.4832107,9.95294935 C14.2632646,9.99568024 14.0912924,10.1503503 13.9890529,10.3443433 C13.9211553,10.4612634 13.8818324,10.5965342 13.8818324,10.7428154 C13.8818324,10.7818761 13.8857647,10.8204125 13.8915321,10.8586868 C13.8959887,10.893291 13.9017561,10.9273708 13.9109314,10.9606642 C13.9586432,11.1339471 14.0532803,11.2702665 14.1762299,11.3683116 C14.3196274,11.4930963 14.5031343,11.5693827 14.7010595,11.5620425 C15.2935246,11.5405459 15.8930678,11.5670234 16.4805519,11.6514365 C16.9235899,11.7148775 17.3086922,11.8724312 17.6972024,12.0391603 C18.714617,12.4756445 19.9774064,12.7986166 21.0713695,12.4512643 C21.6832338,12.2570092 22.2062284,11.7662594 22.1684784,11.0859732 C22.13335,10.4528745 21.6266089,10.1304267 21.0766125,10.012458 C21.6250359,9.75528624 22.0460531,9.26112845 21.8795862,8.60286309 C21.7099734,7.93227655 21.0074042,7.6473166 20.3800729,7.6279173 C19.2963337,7.5940996 18.1981762,8.1530091 17.3511609,8.78007829 C16.9904388,9.04721187 16.6323383,9.29966489 16.2100103,9.45721865" id="Fill-39"></path>
        </g>
    </g>
</svg>